<svg width="180" height="48" viewBox="0 0 180 48" fill="none" xmlns="http://www.w3.org/2000/svg">
  <rect x="0" y="0" width="180" height="48" rx="12" fill="#611F69"/>
  <path d="M26.9 32C21.9 32 18 28.4 18 23.9C18 19.4 21.9 15.8 26.9 15.8C29.8 15.8 32.1 16.8 33.9 18.6L31.2 21.4C30 20.2 28.7 19.6 27 19.6C24.3 19.6 22.2 21.7 22.2 23.9C22.2 26.2 24.3 28.3 27 28.3C28.7 28.3 30.2 27.6 31.3 26.4L34.1 29.2C32.2 31.1 29.9 32 26.9 32Z" fill="#F9CD92"/>
  <path d="M49.3 16H54.4L60.2 32H55.6L54.5 28.9H49.1L48 32H43.5L49.3 16ZM53.5 24.9L51.8 20L50.1 24.9H53.5Z" fill="white"/>
  <path d="M66.2 21.9C66.2 17.4 69.9 15.7 73.5 15.7C77.2 15.7 80.9 17.4 80.9 21.9V32H76.7V30.4C75.7 31.5 74.3 32.1 72.5 32.1C69 32.1 66.2 29.8 66.2 26.6C66.2 23.6 68.4 22.1 71.5 21.6L74.7 21.1C75.8 20.9 76.3 20.5 76.3 19.8C76.3 18.9 75.3 18.3 73.6 18.3C71.8 18.3 70.5 19 70.2 20.5H66.2V21.9ZM76.3 25.1L73 25.6C71.5 25.8 70.8 26.4 70.8 27.4C70.8 28.5 71.7 29.1 73.2 29.1C74.9 29.1 76.3 28.3 76.3 26.6V25.1Z" fill="white"/>
  <path d="M88.1 16H92.4V18.3C93.4 17 95 15.7 97.7 15.7C102.3 15.7 105.2 19.3 105.2 24C105.2 28.6 102.4 32.1 97.7 32.1C95 32.1 93.4 30.8 92.4 29.5V38H88.1V16ZM100.8 24C100.8 21.2 99.5 19.1 97 19.1C94.6 19.1 93.3 21.2 93.3 24C93.3 26.8 94.6 28.9 97 28.9C99.5 28.9 100.8 26.8 100.8 24Z" fill="white"/>
  <path d="M111.3 24C111.3 19.4 114.5 15.7 119.2 15.7C123.9 15.7 127 19.3 127 24C127 28.6 123.9 32.1 119.2 32.1C114.5 32.1 111.3 28.6 111.3 24ZM122.6 24C122.6 21.2 121.3 19.1 118.8 19.1C116.3 19.1 115 21.2 115 24C115 26.8 116.3 28.9 118.8 28.9C121.3 28.9 122.6 26.8 122.6 24Z" fill="white"/>
  <path d="M131.6 16H135.9V18.4C136.9 17 138.6 15.7 141.2 15.7C145.9 15.7 148.7 19.3 148.7 24C148.7 28.6 145.9 32.1 141.2 32.1C138.5 32.1 136.9 30.8 135.9 29.5V32H131.6V16ZM144.3 24C144.3 21.2 143 19.1 140.5 19.1C138.1 19.1 136.8 21.2 136.8 24C136.8 26.8 138.1 28.9 140.5 28.9C143 28.9 144.3 26.8 144.3 24Z" fill="white"/>
  <path d="M153.1 24C153.1 19.4 156.3 15.7 161 15.7C165.7 15.7 168.8 19.3 168.8 24C168.8 28.6 165.7 32.1 161 32.1C156.3 32.1 153.1 28.6 153.1 24ZM164.4 24C164.4 21.2 163.1 19.1 160.6 19.1C158.1 19.1 156.8 21.2 156.8 24C156.8 26.8 158.1 28.9 160.6 28.9C163.1 28.9 164.4 26.8 164.4 24Z" fill="white"/>
</svg>
